<svg xmlns="http://www.w3.org/2000/svg" xml:space="preserve" width="512" height="512" id="diners-club-international">
  <path fill="#00529E" d="M7.9 256C7.9 119 119 7.9 256 7.9S504.1 119 504.1 256 393 504.1 256 504.1 7.9 393 7.9 256z"></path>
  <path fill="#FFF" d="M273.6 252.7c39.4.2 75.4-32.1 75.4-71.5 0-43-36-72.7-75.4-72.7h-33.9c-39.9 0-72.7 29.7-72.7 72.7 0 39.3 32.8 71.6 72.7 71.5h33.9z"></path>
  <path fill="#00529E" d="M254.9 219.6v-78.1c15.7 6 26.8 21.2 26.9 39-.1 17.8-11.3 33-26.9 39.1m-56.8-39.1c0-17.8 11.2-33 26.8-39v78.1c-15.7-6.1-26.8-21.3-26.8-39.1m41.8-66c-36.4 0-66 29.5-66 66 0 36.4 29.5 66 66 66 36.4 0 66-29.5 66-66s-29.6-66-66-66"></path>
  <path fill="#FFF" d="M93.3 301.9c0 5.9 4.2 6.5 7.9 6.5 16.5 0 21.9-12.4 21.9-23.8 0-14.3-9.1-24.5-23.8-24.5-3.1 0-4.6.2-5.9.3v41.5zm-7.5-35.7c0-6.9-3.6-6.4-7-6.5v-2c3 .1 6 .1 9 .1 3.2 0 7.5-.1 13.2-.1 19.7 0 30.5 13.2 30.5 26.7 0 7.6-4.4 26.5-31.4 26.5-3.9 0-7.5-.2-11.1-.2-3.4 0-6.8.1-10.2.2v-2c4.6-.5 6.8-.6 7-5.8v-36.9zM142.3 264.3c-2 0-3.7-1.8-3.7-3.8 0-1.9 1.8-3.7 3.7-3.7 2 0 3.7 1.6 3.7 3.7.1 2.1-1.6 3.8-3.7 3.8m-8.1 44.6h1.5c2.1 0 3.6 0 3.6-2.5v-20.6c0-3.4-1.1-3.8-4-5.3v-1.2c3.6-1.1 7.8-2.5 8.1-2.7.5-.3 1-.4 1.4-.4.4 0 .5.5.5 1.1v29.3c0 2.5 1.7 2.5 3.8 2.5h1.3v2c-2.6 0-5.3-.2-8-.2s-5.5.1-8.3.2v-2.2zM157.7 286.2c0-2.8-.8-3.6-4.4-5v-1.4c3.3-1.1 6.4-2.1 10.1-3.7.2 0 .5.2.5.8v5c4.4-3.1 8.1-5.7 13.2-5.7 6.5 0 8.8 4.7 8.8 10.7v19.7c0 2.5 1.7 2.5 3.8 2.5h1.4v2c-2.7 0-5.3-.2-8.1-.2-2.7 0-5.5.1-8.2.2v-2h1.4c2.1 0 3.7 0 3.7-2.5v-19.7c0-4.3-2.7-6.5-7-6.5-2.4 0-6.3 2-8.9 3.7v22.5c0 2.5 1.7 2.5 3.8 2.5h1.4v2c-2.7 0-5.3-.2-8.1-.2-2.7 0-5.5.1-8.2.2v-2h1.4c2.1 0 3.6 0 3.6-2.5v-20.4zM210.2 287.4c1.9 0 2.1-1 2.1-1.9 0-3.9-2.4-7-6.6-7-4.7 0-7.8 3.4-8.8 8.9h13.3zm-13.5 2.5c-.2.7-.2 1.8 0 4.4.5 7.2 5.1 13.2 11.2 13.2 4.2 0 7.5-2.3 10.3-5.1l1.1 1.1c-3.5 4.6-7.8 8.6-14.1 8.6-12.1 0-14.6-11.7-14.6-16.6 0-14.9 10.1-19.4 15.4-19.4 6.2 0 12.8 3.9 12.9 12 0 .5 0 .9-.1 1.4l-.7.5h-21.4zM220.7 308.9h2.1c2.1 0 3.7 0 3.7-2.5V285c0-2.4-2.8-2.8-4-3.4v-1.1c5.6-2.4 8.6-4.4 9.3-4.4.5 0 .7.2.7 1v6.9h.2c1.9-3 5.1-7.8 9.8-7.8 1.9 0 4.3 1.3 4.3 4 0 2-1.5 3.9-3.6 3.9-2.4 0-2.4-1.9-5-1.9-1.3 0-5.6 1.8-5.6 6.3v17.9c0 2.5 1.5 2.5 3.7 2.5h4.3v2c-4.2-.1-7.4-.2-10.7-.2-3.1 0-6.3.1-9.1.2v-2zM250 300.3c1 5 4 9.3 9.6 9.3 4.5 0 6.2-2.7 6.2-5.4 0-9-16.6-6.1-16.6-18.4 0-4.3 3.4-9.8 11.8-9.8 2.4 0 5.7.7 8.7 2.2l.5 7.8h-1.7c-.8-4.8-3.4-7.5-8.3-7.5-3 0-5.9 1.7-5.9 5 0 8.9 17.7 6.2 17.7 18.1 0 5-4 10.4-13.1 10.4-3 0-6.6-1.1-9.3-2.6l-.8-8.8 1.2-.3zM340.7 271.5h-1.9c-1.5-8.9-7.8-12.5-16.3-12.5-8.8 0-21.5 5.9-21.5 24.2 0 15.4 11 26.4 22.7 26.4 7.5 0 13.8-5.2 15.3-13.2l1.8.5L339 308c-3.2 2-11.8 4-16.9 4-17.8 0-29.1-11.5-29.1-28.7 0-15.6 13.9-26.8 28.9-26.8 6.2 0 12.1 2 18 4.1l.8 10.9zM343.4 308.9h1.4c2.1 0 3.7 0 3.7-2.5V264c0-5-1.1-5.1-4-5.9v-1.2c3-1 6.2-2.4 7.8-3.3.8-.4 1.4-.8 1.7-.8.5 0 .6.5.6 1.1v52.6c0 2.5 1.7 2.5 3.8 2.5h1.3v2c-2.6 0-5.2-.2-8-.2-2.7 0-5.5.1-8.3.2v-2.1zM392.4 306.7c0 1.4.8 1.5 2.1 1.5.9 0 2-.1 3-.1v1.6c-3.3.3-9.5 1.9-11 2.4l-.4-.2v-6.2c-4.6 3.7-8.1 6.4-13.5 6.4-4.1 0-8.4-2.7-8.4-9.1v-19.5c0-2-.3-3.9-4.6-4.3v-1.5c2.7-.1 8.8-.5 9.8-.5.8 0 .8.5.8 2.2v19.7c0 2.3 0 8.9 6.6 8.9 2.6 0 6-2 9.2-4.7v-20.5c0-1.5-3.7-2.3-6.4-3.1v-1.4c6.8-.5 11.1-1.1 11.9-1.1.6 0 .6.5.6 1.4v28.1zM407.5 302.3c0 2.9 2.7 7.8 7.8 7.8 8.2 0 11.6-8 11.6-14.8 0-8.2-6.3-15.1-12.2-15.1-2.8 0-5.2 1.8-7.2 3.6v18.5zm0-20.7c3-2.6 7.2-5.5 11.4-5.5 8.8 0 14.2 7.7 14.2 16 0 10-7.3 20-18.2 20-5.6 0-8.6-1.8-10.6-2.7l-2.3 1.8-1.6-.8c.7-4.5 1.1-8.9 1.1-13.6V264c0-5-1.1-5.1-4-5.9v-1.2c3.1-1 6.2-2.4 7.8-3.3.8-.5 1.4-.8 1.7-.8.5 0 .6.5.6 1.1v27.7zM78.8 355.2h.6c1.5 0 3.1-.2 3.1-2.4v-21.7c0-2.2-1.6-2.4-3.1-2.4h-.6v-1.2c1.6 0 4.1.2 6.1.2 2.1 0 4.6-.2 6.5-.2v1.2h-.6c-1.5 0-3.1.2-3.1 2.4v21.7c0 2.2 1.6 2.4 3.1 2.4h.6v1.2c-2 0-4.5-.2-6.5-.2s-4.5.2-6.1.2v-1.2z"></path>
  <path fill="#FFF" d="M91.2 356.3v-.9h-.4c-1.5 0-3.2-.3-3.3-2.5v-21.7c0-2.3 1.8-2.5 3.3-2.5h.4v-.9c-1.9 0-4.3.2-6.3.2s-4.4-.2-6-.2v.9h.4c1.5 0 3.2.3 3.2 2.5v21.7c0 2.3-1.8 2.5-3.2 2.5h-.4v.9c1.6 0 3.9-.2 5.9-.2 2.1 0 4.5.2 6.4.2m.2.3c-2 0-4.5-.2-6.5-.2s-4.5.2-6.1.2h-.2V355h.8c1.5 0 2.9-.2 2.9-2.2v-21.7c0-2-1.4-2.2-2.9-2.2h-.8v-1.6h.2c1.6 0 4.1.2 6.1.2 2.1 0 4.5-.2 6.5-.2h.2v1.6h-.8c-1.5 0-2.9.2-2.9 2.2v21.7c0 2 1.4 2.2 2.9 2.2h.8v1.6h-.2zM119.9 348.3l.1-15.6c0-3.4-2.4-3.9-3.6-3.9h-.9v-1.2c2 0 3.9.2 5.8.2 1.7 0 3.4-.2 5.1-.2v1.2h-.6c-1.7 0-3.7.3-3.7 5.3V353c0 1.5 0 2.9.2 4.2h-1.6l-21.4-23.8v17.1c0 3.6.7 4.9 3.9 4.9h.7v1.2c-1.8 0-3.6-.2-5.3-.2-1.9 0-3.8.2-5.6.2v-1.2h.6c2.9 0 3.7-2 3.7-5.3v-17.5c0-2.3-1.9-3.7-3.8-3.7H93v-1.2c1.6 0 3.2.2 4.8.2 1.2 0 2.4-.2 3.7-.2l18.4 20.6z"></path>
  <path fill="#FFF" d="M119.8 348.2zm.1.1.1-.1-.1.1zm.8 8.6h1.4c-.2-1.2-.2-2.6-.2-4V334c0-5 2.1-5.4 3.9-5.4h.4v-.9c-1.6 0-3.3.2-4.9.2-1.9 0-3.7-.2-5.6-.2v.9h.7c1.3 0 3.8.6 3.8 4.1v15.7l-.1.1-.1.1-18.4-20.9c-1.2 0-2.4.2-3.7.2-1.5 0-3.1-.2-4.6-.2v.9h.4c1.9 0 3.9 1.5 3.9 3.9V350c0 3.3-.9 5.4-3.9 5.5h-.4v.9c1.8 0 3.6-.2 5.5-.2 1.7 0 3.5.2 5.2.2v-.9h-.5c-3.3 0-4.1-1.4-4.1-5V333l21.3 23.9zm1.6.4-1.7-.1-21-23.5v16.6c0 3.6.6 4.6 3.7 4.7h.9v1.6h-.2c-1.8 0-3.6-.2-5.3-.2-1.9 0-3.8.2-5.6.2h-.2V355h.7c2.7 0 3.5-1.8 3.5-5.1v-17.5c0-2.2-1.8-3.5-3.6-3.5h-.7v-1.6h.2c1.6 0 3.2.2 4.8.2 1.2 0 2.4-.2 3.8-.1l18.2 20.5v-15.3c0-3.3-2.2-3.7-3.4-3.7h-1.1v-1.6h.2c2 0 3.9.2 5.8.2 1.7 0 3.4-.2 5.1-.2h.2v1.6h-.8c-1.7 0-3.5.2-3.5 5.1v18.9c0 1.5 0 2.9.2 4.2v.2h-.2zM132.6 329.6c-3.1 0-3.2.8-3.9 3.8h-1.2c.2-1.2.4-2.3.5-3.5.2-1.2.3-2.3.3-3.5h1c.3 1.2 1.4 1.2 2.5 1.2h21.4c1.1 0 2.2 0 2.2-1.3l1 .2c-.2 1.1-.3 2.2-.5 3.4-.1 1.1-.1 2.2-.1 3.4l-1.2.5c-.1-1.5-.3-4-3.1-4h-6.8v22.1c0 3.2 1.4 3.6 3.4 3.6h.8v1.2c-1.6 0-4.5-.2-6.8-.2-2.5 0-5.4.2-7 .2v-1.2h.8c2.3 0 3.4-.2 3.4-3.5v-22.1h-6.7z"></path>
  <path fill="#FFF" d="M148.9 356.6c-1.6 0-4.5-.2-6.8-.2-2.5 0-5.4.2-7 .2h-.1V355h1c2.3-.1 3.2-.1 3.3-3.3v-22h-6.6v-.4h7v22.3c0 3.3-1.3 3.7-3.6 3.7h-.6v.9c1.6 0 4.4-.2 6.8-.2 2.2 0 4.9.2 6.6.2v-.9h-.6c-2 0-3.6-.5-3.6-3.8v-22.2h7c2.8 0 3.1 2.4 3.2 3.9l.9-.3c0-1.1 0-2.2.1-3.3.1-1.1.3-2.1.4-3.2l-.6-.1c-.2 1.2-1.4 1.3-2.4 1.3h-21.6c-1 0-2 0-2.4-1.2h-.7c0 1.1-.1 2.2-.3 3.4-.1 1.1-.3 2.2-.5 3.3h.9c.6-2.9.9-3.8 4-3.8v.4c-3.1.1-3 .6-3.7 3.6v.1h-1.6v-.2c.2-1.2.4-2.3.5-3.5.2-1.2.2-2.3.2-3.5v-.2h1.3v.1c.3 1.1 1 1.1 2.1 1.1h21.6c1.2 0 2 0 2.1-1.1v-.2h.2l1.2.2v.2c-.2 1.1-.3 2.2-.5 3.3-.1 1.1-.1 2.2-.1 3.3v.1l-.1.1-1.5.5v-.2c-.1-1.6-.3-3.8-2.9-3.8h-6.6v21.9c0 3.1 1.3 3.4 3.3 3.4h1v1.6h-.3zM157.7 355.2h.6c1.5 0 3.1-.2 3.1-2.4v-21.7c0-2.2-1.6-2.4-3.1-2.4h-.6v-1.2c2.5 0 6.8.2 10.3.2 3.5 0 7.8-.2 10.6-.2-.1 1.8 0 4.5.1 6.3l-1.3.3c-.2-2.7-.7-4.8-5-4.8h-5.8v10.9h4.9c2.5 0 3-1.4 3.3-3.6h1.2c-.1 1.6-.1 3.2-.1 4.9 0 1.6 0 3.2.1 4.7l-1.2.2c-.3-2.5-.4-4.1-3.2-4.1h-5v9.7c0 2.7 2.4 2.7 5 2.7 5 0 7.2-.3 8.4-5.1l1.2.3c-.5 2.2-1 4.4-1.4 6.6-2.7 0-7.4-.2-11.2-.2-3.7 0-8.7.2-11 .2v-1.3z"></path>
  <path fill="#FFF" d="M179.7 356.3c.4-2.1.8-4.2 1.3-6.3l-.8-.2c-1.2 4.6-3.6 5-8.5 5-2.6 0-5.2 0-5.2-2.9v-9.8h5.2c2.9 0 3.2 1.7 3.4 4.1l.9-.2c-.1-1.5-.1-3.1-.1-4.6 0-1.6 0-3.1.1-4.7h-1c-.2 2.2-.9 3.7-3.4 3.7h-5.1v-11.2h6c4.3 0 5 2.2 5.2 4.8l.9-.2c-.1-1.2-.1-2.7-.1-4.1v-2c-2.8 0-7 .2-10.4.2-3.4 0-7.6-.2-10.1-.2v.9h.4c1.5 0 3.2.3 3.2 2.5v21.7c0 2.3-1.8 2.5-3.2 2.6h-.4v.9c2.4 0 7.2-.2 10.8-.2 3.6 0 8.2.2 10.9.2m.1.3c-2.7 0-7.4-.2-11.2-.2-3.7 0-8.7.2-11 .2h-.2V355h.8c1.5 0 2.9-.2 2.9-2.2v-21.7c0-2-1.4-2.2-2.9-2.2h-.8v-1.6h.2c2.5 0 6.8.2 10.3.2 3.5 0 7.8-.2 10.6-.2h.2v2.3c0 1.4 0 3 .1 4.2v.2h-.1l-1.5.4v-.2c-.2-2.7-.6-4.7-4.9-4.7h-5.6V340h4.8c2.4 0 2.8-1.2 3.1-3.5v-.2h1.6v.2c-.1 1.6-.1 3.2-.1 4.9 0 1.6.1 3.1.1 4.7v.1h-.1l-1.4.3v-.2c-.3-2.5-.3-3.9-3.1-3.9h-4.8v9.5c0 2.5 2.2 2.5 4.9 2.5 5 0 7-.3 8.2-4.9v-.2h.2l1.3.3v.2c-.5 2.2-1 4.4-1.4 6.6v.1h-.2zM192.2 341.5h2c4.2 0 6.4-1.6 6.4-6.5 0-3.7-2.4-6-6.1-6-1.2 0-1.8.1-2.4.2v12.3zm-5.4-9.6c0-3-1.7-3.1-2.9-3.1h-.7v-1.3c1.3 0 3.9.2 6.4.2 2.5 0 4.5-.2 6.7-.2 5.2 0 9.9 1.4 9.9 7.3 0 3.7-2.5 6-5.8 7.3l7.1 10.6c1.2 1.8 2 2.2 4 2.5v1.2c-1.4 0-2.7-.2-4.1-.2-1.3 0-2.6.2-3.9.2-3.2-4.2-5.9-8.7-8.6-13.4h-2.7v8.9c0 3.2 1.5 3.3 3.4 3.3h.7v1.2c-2.4 0-4.8-.2-7.1-.2-2 0-3.9.2-6 .2v-1.2h.7c1.5 0 2.9-.7 2.9-2.2v-21.1z"></path>
  <path fill="#FFF" d="M194.2 341.3c4.1 0 6.2-1.5 6.2-6.3 0-3.6-2.3-5.9-5.9-5.9-1.1 0-1.6.1-2.2.2v12h1.9zm-2 .4h-.2V329h.2c.6 0 1.1-.2 2.4-.2 3.8 0 6.2 2.4 6.2 6.2 0 5-2.4 6.6-6.6 6.6h-2zm0 1.1h2.8v.1c2.7 4.8 5.4 9.2 8.5 13.3 1.3 0 2.6-.2 3.9-.2 1.3 0 2.6.1 3.9.2v-.9c-2-.2-2.9-.8-4-2.5l-7.2-10.8.2-.1c3.2-1.3 5.6-3.5 5.7-7.1 0-5.8-4.5-7.1-9.7-7.1-2.2 0-4.2.2-6.7.2-2.4 0-4.9-.2-6.3-.2v.9h.6c1.3 0 3.1.2 3.1 3.3V353c0 1.7-1.6 2.4-3.1 2.4h-.6v.9c2 0 3.9-.2 5.8-.2 2.3 0 4.7.2 7 .2v-.9h-.6c-1.9 0-3.6-.2-3.6-3.5v-9h.3zm19.3 13.8c-1.4 0-2.7-.2-4.1-.2-1.3 0-2.6.2-4 .1-3.2-4.2-5.9-8.6-8.6-13.4h-2.4v8.7c0 3.1 1.3 3.1 3.2 3.1h.9v1.6h-.2c-2.4 0-4.8-.2-7.1-.2-2 0-3.9.2-6 .2h-.2V355h.9c1.5 0 2.8-.7 2.8-2.1v-21.1c0-2.9-1.5-2.9-2.8-3h-.9v-1.6h.2c1.3 0 3.9.2 6.4.2 2.5 0 4.5-.2 6.7-.2 5.2 0 10 1.4 10.1 7.5 0 3.7-2.5 6.1-5.7 7.4l7 10.4c1.2 1.7 1.9 2.2 3.9 2.4h.1v1.6h-.2zM239.6 348.3l.1-15.6c0-3.4-2.4-3.9-3.6-3.9h-.9v-1.2c2 0 3.9.2 5.8.2 1.7 0 3.4-.2 5.1-.2v1.2h-.6c-1.7 0-3.7.3-3.7 5.3V353c0 1.5 0 2.9.3 4.2h-1.6l-21.4-23.8v17.1c0 3.6.7 4.9 3.9 4.9h.7v1.2c-1.8 0-3.6-.2-5.3-.2-1.9 0-3.8.2-5.6.2v-1.2h.6c2.9 0 3.7-2 3.7-5.3v-17.5c0-2.3-1.9-3.7-3.8-3.7h-.5v-1.2c1.6 0 3.2.2 4.8.2 1.2 0 2.4-.2 3.7-.2l18.3 20.6z"></path>
  <path fill="#FFF" d="M239.5 348.2zm.1.1.1-.1-.1.1zm.9 8.6h1.4c-.2-1.2-.2-2.6-.2-4V334c0-5 2.1-5.4 3.9-5.4h.4v-.9c-1.6 0-3.3.2-4.9.2-1.9 0-3.8-.2-5.6-.2v.9h.7c1.3 0 3.8.6 3.8 4.1l-.1 15.7-.1.1-.1.1-18.5-20.9c-1.2 0-2.4.2-3.7.2-1.5 0-3.1-.2-4.6-.2v.9h.4c1.9 0 3.9 1.5 3.9 3.9V350c0 3.3-.9 5.4-3.9 5.5h-.4v.9c1.8 0 3.6-.2 5.5-.2 1.7 0 3.5.2 5.2.2v-.9h-.6c-3.3 0-4.1-1.4-4.1-5V333l21.6 23.9zm1.5.4-1.7-.1-21-23.5v16.6c.1 3.6.6 4.6 3.7 4.7h.9v1.6h-.2c-1.8 0-3.6-.2-5.3-.2-1.9 0-3.8.2-5.6.2h-.2V355h.8c2.7 0 3.5-1.8 3.6-5.1v-17.5c0-2.2-1.8-3.5-3.6-3.5h-.7v-1.6h.2c1.6 0 3.2.2 4.8.2 1.2 0 2.4-.2 3.8-.1l18.2 20.5v-15.3c0-3.3-2.2-3.7-3.4-3.7H235v-1.6h.2c2 0 3.9.2 5.8.2 1.7 0 3.4-.2 5.1-.2h.2v1.6h-.8c-1.7 0-3.5.2-3.5 5.1v18.9c0 1.5 0 2.9.2 4.2v.2h-.2zM258.8 332.2l-3.9 11.7h7.8l-3.9-11.7zm-6 18.3c-.4 1.4-.9 2.5-.9 3.2 0 1.2 1.7 1.5 3.1 1.5h.5v1.2c-1.7-.1-3.4-.2-5-.2-1.5 0-3 .1-4.5.2v-1.2h.3c1.6 0 3-1 3.6-2.7l6.6-19c.5-1.5 1.3-3.6 1.5-5.1 1.3-.5 3-1.3 3.8-1.8.1 0 .2-.1.3-.1.1 0 .2 0 .3.1.1.3.2.7.4 1l7.6 21.7c.5 1.5 1 3 1.5 4.2.5 1.2 1.4 1.7 2.8 1.7h.2v1.2c-1.9-.1-3.7-.2-5.7-.2s-4.1.1-6.2.2v-1.2h.5c.9 0 2.6-.2 2.6-1.2 0-.5-.4-1.7-.8-3l-1.6-4.8h-9.4l-1.5 4.3z"></path>
  <path fill="#FFF" d="M258.6 332.2zm-3.5 11.5h7.3l-3.6-11.1-3.7 11.1zm-.5.4 4-12.1h.2v.2-.2h.1l3.9 12.1h-8.2zm8.5 12.2c2.1-.1 4.1-.2 6.1-.2 1.9 0 3.7.1 5.5.2v-.9h-.1c-1.4 0-2.4-.6-2.9-1.8-.5-1.3-1-2.8-1.5-4.2l-7.6-21.7c-.1-.3-.2-.7-.4-1h-.2c-.1 0-.1 0-.2.1-.8.5-2.5 1.3-3.7 1.7-.3 1.6-1 3.6-1.5 5.2l-6.6 19c-.6 1.8-2.1 2.8-3.8 2.8h-.1v.9c1.4-.1 2.9-.2 4.3-.2 1.6 0 3.2.1 4.8.2v-.9h-.2c-1.3 0-3.2-.2-3.3-1.6 0-.8.5-1.9.9-3.3l.2.1-.2-.1 1.4-4.4h9.7l1.7 4.9c.5 1.3.8 2.4.8 3-.1 1.3-1.8 1.4-2.8 1.4h-.3v.8zm11.8.3c-1.9-.1-3.7-.2-5.7-.2s-4.1.1-6.2.2h-.2V355h.7c1 0 2.4-.2 2.4-1 0-.5-.4-1.6-.8-2.9l-1.6-4.7h-9.2l-1.3 4.2c-.4 1.4-.9 2.5-.9 3.2 0 1 1.6 1.3 2.9 1.3h.6v1.6h-.2c-1.7-.1-3.4-.2-5-.2-1.5 0-3 .1-4.5.2h-.2V355h.4c1.6 0 2.8-.9 3.4-2.6l6.6-19c.5-1.5 1.3-3.6 1.7-5.3 1.3-.4 3-1.3 3.8-1.8.1 0 .2-.1.4-.1.1 0 .3 0 .5.2.1.3.3.7.4 1l7.6 21.7c.5 1.5 1 3 1.5 4.2.5 1.1 1.2 1.5 2.6 1.5h.4v1.6l-.1.2zM276.7 329.6c-3.1 0-3.2.8-3.9 3.8h-1.3c.2-1.2.4-2.3.5-3.5.2-1.2.3-2.3.3-3.5h1c.3 1.2 1.4 1.2 2.5 1.2h21.4c1.1 0 2.2 0 2.2-1.3l1 .2c-.2 1.1-.3 2.2-.5 3.4-.1 1.1-.1 2.2-.1 3.4l-1.2.5c-.1-1.5-.3-4-3.1-4h-6.8v22.1c0 3.2 1.5 3.6 3.4 3.6h.8v1.2c-1.6 0-4.5-.2-6.8-.2-2.5 0-5.4.2-7 .2v-1.2h.8c2.3 0 3.5-.2 3.5-3.5v-22.1h-6.7z"></path>
  <path fill="#FFF" d="M293 356.6c-1.6 0-4.5-.2-6.8-.2-2.5 0-5.4.2-7 .2h-.2V355h1c2.3-.1 3.2-.1 3.3-3.3v-22h-6.6v-.4h7v22.3c0 3.3-1.3 3.6-3.6 3.7h-.6v.9c1.6 0 4.4-.2 6.8-.2 2.2 0 4.9.2 6.6.2v-.9h-.6c-2 0-3.6-.5-3.6-3.7v-22.2h7c2.8 0 3.2 2.4 3.2 3.9l.9-.3c0-1.1 0-2.2.1-3.3.1-1.1.3-2.1.4-3.2l-.6-.1c-.2 1.2-1.4 1.3-2.4 1.3h-21.6c-1 0-2 0-2.4-1.2h-.7c0 1.1-.1 2.3-.3 3.4-.1 1.1-.3 2.2-.5 3.3h.9c.5-2.9.9-3.8 4-3.8v.4c-3.1.1-3 .6-3.7 3.6v.1h-1.6v-.2c.2-1.2.4-2.3.5-3.5.2-1.2.3-2.3.3-3.5v-.2h1.3v.1c.3 1.1 1 1.1 2.1 1.1h21.6c1.1 0 2 0 2.1-1.1v-.2h.2l1.2.2v.2c-.2 1.1-.3 2.2-.5 3.3-.1 1.1-.1 2.2-.1 3.3v.1l-.1.1-1.5.5v-.2c-.1-1.6-.3-3.8-2.9-3.8H289v21.9c0 3.1 1.3 3.4 3.3 3.4h1v1.6h-.3zM302 355.2h.6c1.5 0 3.1-.2 3.1-2.4v-21.7c0-2.2-1.6-2.4-3.1-2.4h-.6v-1.2c1.6 0 4.1.2 6.1.2 2.1 0 4.6-.2 6.5-.2v1.2h-.6c-1.5 0-3.1.2-3.1 2.4v21.7c0 2.2 1.6 2.4 3.1 2.4h.6v1.2c-2 0-4.5-.2-6.6-.2-2 0-4.5.2-6.1.2v-1.2z"></path>
  <path fill="#FFF" d="M314.5 356.3v-.9h-.4c-1.5 0-3.3-.3-3.3-2.5v-21.7c0-2.3 1.8-2.5 3.3-2.5h.4v-.9c-1.9 0-4.3.2-6.3.2s-4.3-.2-6-.2v.9h.4c1.5 0 3.2.3 3.3 2.5v21.7c0 2.3-1.8 2.5-3.3 2.5h-.4v.9c1.6 0 3.9-.2 5.9-.2 2 0 4.4.2 6.4.2m.1.3c-2 0-4.5-.2-6.5-.2s-4.5.2-6.1.2h-.2V355h.8c1.5 0 2.9-.2 2.9-2.2v-21.7c0-2-1.4-2.2-2.9-2.2h-.8v-1.6h.2c1.6 0 4.1.2 6.1.2 2.1 0 4.6-.2 6.5-.2h.2v1.6h-.8c-1.5 0-2.9.2-2.9 2.2v21.7c0 2 1.4 2.2 2.9 2.2h.8v1.6h-.2zM331.8 355.3c8 0 9.4-7.1 9.4-13.1 0-6.1-3.3-13.4-10.2-13.4-7.3 0-9.4 6.5-9.4 12 .1 7.4 3.5 14.5 10.2 14.5m-.6-28.4c8.9 0 15.9 5.5 15.9 14.3 0 9.5-6.8 15.9-15.7 15.9-8.8 0-15.5-6-15.5-14.9 0-8.6 6.6-15.3 15.3-15.3"></path>
  <path fill="#FFF" d="M321.5 340.7c0-5.6 2.2-12.2 9.6-12.2 7 0 10.3 7.5 10.3 13.6 0 6-1.4 13.3-9.6 13.3v-.4c7.9 0 9.3-6.9 9.3-13 0-6-3.2-13.2-10-13.2-7.1 0-9.2 6.3-9.2 11.8 0 7.4 3.4 14.3 9.9 14.3v.4c-6.9.1-10.3-7.1-10.3-14.6m-5.8 1.5c0-8.7 6.8-15.5 15.5-15.5v.4c-8.5 0-15.1 6.6-15.1 15.1 0 8.8 6.6 14.7 15.3 14.7 8.7 0 15.5-6.3 15.5-15.7 0-8.7-6.9-14.1-15.7-14.1v-.4c8.9 0 16.1 5.5 16.1 14.5 0 9.6-6.9 16-15.8 16.1-9-.1-15.8-6.1-15.8-15.1M375 348.3l.1-15.6c0-3.4-2.4-3.9-3.6-3.9h-.9v-1.2c1.9 0 3.9.2 5.8.2 1.7 0 3.4-.2 5.1-.2v1.2h-.6c-1.7 0-3.7.3-3.7 5.3V353c0 1.5 0 2.9.3 4.2h-1.6l-21.4-23.8v17.1c0 3.6.7 4.9 3.9 4.9h.7v1.2c-1.8 0-3.6-.2-5.3-.2-1.9 0-3.8.2-5.7.2v-1.2h.6c2.9 0 3.7-2 3.7-5.3v-17.5c0-2.3-1.9-3.7-3.8-3.7h-.5v-1.2c1.6 0 3.2.2 4.8.2 1.2 0 2.4-.2 3.7-.2l18.4 20.6z"></path>
  <path fill="#FFF" d="M374.9 348.2zm.1.1.1-.1-.1.1zm.8 8.6h1.4c-.2-1.2-.2-2.6-.2-4V334c0-5 2.1-5.4 3.9-5.4h.4v-.9c-1.6 0-3.3.2-4.9.2-1.9 0-3.7-.2-5.6-.2v.9h.7c1.3 0 3.8.6 3.8 4.1v15.7l-.1.1-.1.1-18.5-20.9c-1.2 0-2.4.2-3.7.2-1.5 0-3.1-.2-4.6-.2v.9h.4c2 0 4 1.5 4 3.9V350c0 3.3-.9 5.4-3.9 5.5h-.4v.9c1.8 0 3.6-.2 5.5-.2 1.7 0 3.4.2 5.2.2v-.9h-.5c-3.3 0-4.1-1.4-4.1-5V333l21.3 23.9zm1.6.4-1.7-.1-21-23.5v16.6c.1 3.6.6 4.6 3.7 4.7h.9v1.6h-.2c-1.8 0-3.6-.2-5.3-.2-1.9 0-3.8.2-5.7.2h-.2V355h.8c2.7 0 3.5-1.8 3.5-5.1v-17.5c0-2.2-1.8-3.5-3.6-3.5h-.7v-1.6h.2c1.6 0 3.2.2 4.8.2 1.2 0 2.4-.2 3.8-.1l18.2 20.5v-15.3c0-3.3-2.2-3.7-3.4-3.7h-1.1v-1.6h.2c2 0 3.9.2 5.8.2 1.7 0 3.4-.2 5.1-.2h.2v1.6h-.8c-1.7 0-3.5.2-3.5 5.1v18.9c0 1.5 0 2.9.2 4.2v.2h-.2zM394.2 332.2l-3.9 11.7h7.8l-3.9-11.7zm-6.1 18.3c-.4 1.4-.9 2.5-.9 3.2 0 1.2 1.7 1.5 3.1 1.5h.5v1.2c-1.7-.1-3.4-.2-5-.2-1.5 0-3 .1-4.5.2v-1.2h.2c1.6 0 3-1 3.6-2.7l6.6-19c.5-1.5 1.3-3.6 1.5-5.1 1.3-.5 3-1.3 3.8-1.8.1 0 .2-.1.3-.1.1 0 .2 0 .3.1.1.3.3.7.4 1l7.6 21.7c.5 1.5 1 3 1.5 4.2.5 1.2 1.4 1.7 2.7 1.7h.2v1.2c-1.9-.1-3.7-.2-5.7-.2s-4.1.1-6.2.2v-1.2h.5c.9 0 2.6-.2 2.6-1.2 0-.5-.4-1.7-.8-3l-1.6-4.8h-9.4l-1.3 4.3z"></path>
  <path fill="#FFF" d="M394 332.2zm-3.5 11.5h7.2l-3.6-11.1-3.6 11.1zm-.5.4 4-12.1h.2v.2-.2h.1l3.9 12.1H390zm8.5 12.2c2-.1 4.1-.2 6-.2 1.9 0 3.7.1 5.5.2v-.9c-1.4 0-2.4-.6-2.9-1.8-.5-1.3-1-2.8-1.5-4.2l-7.6-21.7c-.1-.3-.3-.7-.4-1h-.2c-.1 0-.1 0-.2.1-.8.5-2.5 1.3-3.7 1.7-.3 1.6-1 3.6-1.5 5.2l-6.6 19c-.6 1.8-2.1 2.8-3.8 2.8h-.1v.9c1.4-.1 2.9-.2 4.3-.2 1.6 0 3.2.1 4.8.2v-.9h-.3c-1.3 0-3.2-.2-3.3-1.6 0-.8.5-1.9.9-3.3l.2.1-.2-.1 1.4-4.4h9.7l1.7 4.9c.5 1.3.8 2.4.8 3-.1 1.3-1.8 1.4-2.7 1.4h-.3v.8zm11.7.3c-1.9-.1-3.7-.2-5.7-.2s-4.1.1-6.2.2h-.2V355h.7c1 0 2.4-.2 2.4-1 0-.5-.4-1.6-.8-2.9l-1.6-4.7h-9.2l-1.3 4.2c-.4 1.4-.9 2.5-.9 3.2 0 1 1.6 1.3 2.9 1.3h.6v1.6h-.2c-1.7-.1-3.4-.2-5-.2-1.5 0-3 .1-4.5.2h-.2V355h.4c1.5 0 2.8-.9 3.4-2.6l6.6-19c.5-1.5 1.3-3.6 1.6-5.3 1.3-.5 3-1.3 3.8-1.8.1 0 .2-.1.4-.1.1 0 .3 0 .5.2.1.3.2.7.4 1l7.6 21.7c.5 1.5 1 3 1.5 4.2.5 1.1 1.2 1.5 2.6 1.6h.4v1.7zM420.7 352.4c0 1.7 1.1 2.2 2.5 2.3 1.7.1 3.6.1 5.5-.1 1.7-.2 3.2-1.2 4-2.2.7-.9 1-2.1 1.3-3h1.2c-.5 2.4-1 4.7-1.5 7.1-3.6 0-7.3-.2-10.9-.2-3.7 0-7.3.2-10.9.2v-1.2h.6c1.5 0 3.1-.2 3.1-2.8v-21.3c0-2.2-1.6-2.4-3.1-2.4h-.6v-1.2c2.2 0 4.4.2 6.5.2 2.1 0 4.2-.2 6.3-.2v1.2h-1c-1.6 0-2.8 0-2.8 2.2v21.4z"></path>
  <path fill="#FFF" d="M433.4 356.3c.5-2.2 1-4.4 1.5-6.7h-.8c-.3.9-.6 2-1.3 2.9-.8 1.1-2.3 2.1-4.1 2.3-1.1.1-2.2.2-3.2.2-.8 0-1.6 0-2.3-.1-1.4-.1-2.7-.7-2.7-2.5V331c0-2.3 1.5-2.4 3-2.4h.8v-.9c-2 0-4 .2-6.1.2-2.1 0-4.3-.2-6.4-.2v.9h.4c1.5 0 3.3.3 3.3 2.5v21.3c0 2.7-1.8 3-3.3 3h-.4v.9c3.6 0 7.2-.2 10.8-.2s7.2.2 10.8.2m.2.3c-3.7 0-7.3-.2-10.9-.2-3.6 0-7.3.2-11 .2h-.2V355h.8c1.5 0 2.9-.1 2.9-2.6v-21.3c0-2-1.4-2.2-2.9-2.2h-.8v-1.6h.2c2.2 0 4.4.2 6.6.2 2.1 0 4.2-.2 6.3-.2h.2v1.6h-1.2c-1.6 0-2.6 0-2.6 2.1v21.4c0 1.5 1 2 2.3 2.2.7.1 1.5.1 2.3.1 1 0 2.1-.1 3.1-.2 1.7-.2 3.1-1.2 3.9-2.2.6-.9 1-2 1.2-2.9v-.1h1.5v.2c-.5 2.4-1 4.7-1.5 7v.1h-.2zM433.9 330.7h.5c.6 0 .8-.4.8-1.1 0-.7-.4-.9-.9-.9h-.5v2zm-1.5 2.3v-.2c.5-.1.6-.1.6-.4v-3.2c0-.5 0-.6-.6-.6v-.2h2.2c.8 0 1.5.4 1.5 1.2 0 .7-.4 1.1-1 1.3l.7 1c.3.4.7.9 1 1v.1h-.8c-.4 0-.8-.9-1.6-2h-.5v1.4c0 .3.1.3.6.4v.2h-2.1zm2.2 1.2c2 0 3.5-1.7 3.5-3.5 0-1.9-1.5-3.6-3.5-3.6s-3.5 1.7-3.5 3.6c0 1.9 1.5 3.5 3.5 3.5m0-7.9c2.5 0 4.4 1.9 4.4 4.4 0 2.5-1.9 4.4-4.4 4.4s-4.4-1.9-4.4-4.4c0-2.4 1.9-4.4 4.4-4.4"></path>
</svg>
