<svg height="48" width="48" xmlns="http://www.w3.org/2000/svg" xmlns:xlink="http://www.w3.org/1999/xlink"><radialGradient id="a" cx="605.71429" cy="486.64789" gradientTransform="matrix(.02891661 0 0 .01235294 26.973101 38.470848)" gradientUnits="userSpaceOnUse" r="117.14286" xlink:href="#b"/><linearGradient id="b"><stop offset="0"/><stop offset="1" stop-opacity="0"/></linearGradient><radialGradient id="c" cx="605.71429" cy="486.64789" gradientTransform="matrix(-.0289166 0 0 .01235294 21.026894 38.470848)" gradientUnits="userSpaceOnUse" r="117.14286" xlink:href="#b"/><linearGradient id="d" gradientTransform="matrix(.08449704 0 0 .01235294 -6.539646 38.470822)" gradientUnits="userSpaceOnUse" x1="302.85715" x2="302.85715" y1="366.64789" y2="609.50507"><stop offset="0" stop-opacity="0"/><stop offset=".5"/><stop offset="1" stop-opacity="0"/></linearGradient><linearGradient id="e" gradientTransform="matrix(1.1621621 0 0 .91891888 -3.891894 4.445949)" gradientUnits="userSpaceOnUse" x1="40.290417" x2="40.290417" y1="6.093005" y2="41.843941"><stop offset="0" stop-color="#fff"/><stop offset=".04168307" stop-color="#fff" stop-opacity=".235294"/><stop offset=".96375686" stop-color="#fff" stop-opacity=".156863"/><stop offset="1" stop-color="#fff" stop-opacity=".392157"/></linearGradient><linearGradient id="f" gradientTransform="matrix(1.1500002 0 0 1.1666666 -.150004 17.333333)" gradientUnits="userSpaceOnUse" x1="10" x2="20" y1="-3" y2="12"><stop offset="0" stop-color="#fff"/><stop offset="1" stop-color="#fff" stop-opacity="0"/></linearGradient><linearGradient id="g" gradientTransform="matrix(1.0327681 0 0 .99872074 -1.29134 -5.518882)" gradientUnits="userSpaceOnUse" x1="23.25" x2="23.25" y1="-28.809029" y2="70.294914"><stop offset="0" stop-color="#fafafa"/><stop offset="1" stop-color="#d4d4d4"/></linearGradient><g opacity=".3"><path d="m3.6 43h40.799999v3h-40.799999z" fill="url(#d)"/><path d="m3.6 43.00013v2.999835c-1.4891338.005647-3.6-.672111-3.6-1.500111 0-.827998 1.6617608-1.499723 3.6-1.499724z" fill="url(#c)"/><path d="m44.4 43.00013v2.999835c1.489133.0056 3.6-.672111 3.6-1.500111 0-.827998-1.661761-1.499723-3.6-1.499724z" fill="url(#a)"/></g><rect fill="url(#g)" height="36" rx="3" width="45" x="1.5" y="8.5"/><path d="m24.996094 23.318359a3.1821582 3.1821582 0 0 0 -3.1875 3.181641 3.1821582 3.1821582 0 0 0 3.1875 3.181641 3.1821582 3.1821582 0 0 0 3.179687-3.181641 3.1821582 3.1821582 0 0 0 -3.179687-3.181641zm21.503906 3.931641s-4.012358 10.880779-36.5917969 17.25h33.5917969c.20775 0 .409824-.020715.605469-.060547 1.369414-.278761 2.394531-1.485251 2.394531-2.939453z" fill="#f56601"/><rect fill="none" height="36" opacity=".5" rx="3" stroke="#555761" stroke-linecap="round" stroke-linejoin="round" width="45" x="1.5" y="8.5"/><rect fill="none" height="34" rx="2" stroke="url(#e)" stroke-linecap="round" stroke-linejoin="round" width="43" x="2.5" y="9.5"/><path d="m4.5 8.5c-1.662 0-3 1.338-3 3v17.333984l45-14.980468v-2.353516c0-1.662-1.338-3-3-3z" fill="url(#f)" opacity=".3"/><path d="m20.218198 23.46516c-1.71604 0-3.091756 1.350202-3.091756 3.038642 0 1.706872 1.340383 3.030738 3.065199 3.030738.487578 0 .904912-.09588 1.419879-.338445v-1.333431c-.452807.453222-.853739.636206-1.367334.636206-1.140719 0-1.950427-.827066-1.950427-2.002975 0-1.114912.83538-1.9945 1.897882-1.9945.540235 0 .94896.192549 1.419879.653156v-1.332303c-.497166-.252258-.905973-.357086-1.393322-.357088zm-5.355204.03558c-1.027399 0-1.810869.713012-1.810869 1.663402 0 .800026.364542 1.209906 1.428353 1.592773.443388.156395.66921.260418.783109.330532.226338.14779.339576.357313.339576.601175 0 .470528-.37378.818706-.879162.818706-.540235 0-.97548-.269759-1.236252-.774067l-.731689.704569c.52187.766047 1.148481 1.105167 2.010315 1.105167 1.17714 0 2.002976-.782189 2.002976-1.906357 0-.922606-.382245-1.340747-1.670745-1.811997-.679699-.251507-.879162-.41739-.879162-.731131 0-.365709.355907-.643551.844131-.643551.3394 0 .617934.139762.913063.470658l.592699-.77633c-.487017-.425994-1.069674-.643547-1.706343-.643547zm-8.967899.09604v5.806647h1.654359c.87948 0 1.514451-.207246 2.071908-.670105.662395-.548202 1.053751-1.374927 1.053751-2.229547 0-1.713691-1.280241-2.906998-3.117181-2.906998zm5.301525 0v5.806647h1.132853v-5.80665zm16.610277 0 2.464027 5.955811h.60965l2.508659-5.955814h-1.227774l-1.569042 3.900295-1.548139-3.900295zm6.094242 0v5.806647h3.212667v-.983102h-2.080379v-1.56735h2.003538v-.983687h-2.003538v-1.288795h2.080379v-.98369zm3.962441 0v5.806647h1.131723v-2.332941h.147473l1.567911 2.332942h1.392759l-1.827827-2.446509c.853082-.173456 1.322696-.756746 1.322696-1.645883 0-1.087129-.748716-1.714255-2.054955-1.714255zm1.131723.914192h.348614c.705424 0 1.088781.295932 1.088781.861081 0 .583786-.383551.897808-1.106862.897808h-.330533zm-31.967921.06949h.303976c.731874 0 1.175744.130834 1.549834.469524.391726.348822.627164.889557.627164 1.445871 0 .557437-.23545 1.114144-.627164 1.462821-.355894.321374-.81796.461617-1.549834.461617h-.303976z" fill="#201d1c"/></svg>