<svg xmlns="http://www.w3.org/2000/svg" width="256" height="256" fill="none" viewBox="0 0 256 256" id="wechat">
  <rect width="224" height="224" x="16" y="16" fill="url(#paint0_linear_531_13654)" rx="70"></rect>
  <path fill="#07C160" fill-rule="evenodd" d="M109.821 143.487C108.799 144.005 107.616 144.106 106.52 143.772C105.424 143.437 104.5 142.692 103.941 141.691L103.653 141.055L91.517 114.423C91.3068 113.975 91.2525 113.469 91.3627 112.987C91.4729 112.504 91.7412 112.072 92.1251 111.759C92.509 111.447 92.9864 111.272 93.4814 111.261C93.9764 111.251 94.4606 111.407 94.857 111.703L109.177 121.903C110.042 122.471 111.028 122.828 112.056 122.946C113.084 123.064 114.126 122.94 115.097 122.583L182.453 92.5994C170.381 78.3674 150.497 69.0674 127.997 69.0674C91.177 69.0674 61.333 93.9394 61.333 124.627C61.333 141.363 70.309 156.435 84.365 166.623C85.1418 167.175 85.7201 167.963 86.0141 168.869C86.3081 169.776 86.3021 170.753 85.997 171.655C84.877 175.843 83.077 182.547 82.997 182.863C82.853 183.387 82.637 183.939 82.637 184.487C82.637 185.715 83.629 186.707 84.861 186.707C85.3175 186.691 85.7604 186.548 86.141 186.295L100.741 177.867C101.837 177.235 102.997 176.843 104.277 176.843C104.961 176.843 105.621 176.947 106.237 177.139C113.045 179.099 120.397 180.183 127.997 180.183C164.817 180.183 194.665 155.311 194.665 124.623C194.665 115.335 191.913 106.583 187.073 98.8834L109.821 143.487Z" clip-rule="evenodd"></path>
  <defs>
    <linearGradient id="paint0_linear_531_13654" x1="16" x2="208" y1="16" y2="240" gradientUnits="userSpaceOnUse">
      <stop stop-color="#fff"></stop>
      <stop offset="1" stop-color="#ACCCFF"></stop>
    </linearGradient>
  </defs>
</svg>
