<svg xmlns="http://www.w3.org/2000/svg" width="256" height="256" fill="none" viewBox="0 0 256 256" id="alipay">
  <rect width="224" height="224" x="16" y="16" fill="url(#paint0_linear_531_13609)" rx="70"></rect>
  <path fill="#1677FF" d="M91.3813 136.405C89.7388 137.662 88.0963 139.497 87.6132 141.913C86.9369 145.101 87.5166 149.159 90.5118 152.348C94.2799 156.116 99.9804 157.178 102.492 157.372C109.159 157.855 116.309 154.473 121.719 150.802C123.845 149.352 127.42 146.357 130.898 141.719C123.169 137.758 113.507 133.314 103.265 133.7C97.8548 133.893 94.0866 134.956 91.3813 136.405ZM189.352 154.087C192.734 146.067 194.666 137.275 194.666 128C194.666 91.2847 164.715 61.333 128 61.333C91.2847 61.333 61.333 91.2847 61.333 128C61.333 164.715 91.2847 194.666 128 194.666C150.222 194.666 169.835 183.748 182.009 167.033C170.512 161.43 151.671 151.961 139.98 146.357C134.473 152.734 126.261 159.014 116.985 161.719C111.188 163.459 105.874 164.135 100.463 162.976C94.9562 161.816 90.9948 159.304 88.676 156.792C87.5166 155.439 86.1639 153.893 85.1011 151.864C85.1977 151.961 85.1977 152.154 85.1977 152.251C85.1977 152.251 84.618 151.285 84.2316 149.739C84.0383 148.966 83.8451 148.193 83.7485 147.42C83.6518 146.84 83.6518 146.261 83.7485 145.777C83.6518 144.811 83.7485 143.748 83.9417 142.686C84.5214 139.98 85.5842 136.985 88.5794 134.183C94.9562 127.903 103.555 127.613 108 127.613C114.57 127.71 125.971 130.512 135.633 133.99C138.338 128.29 140.077 122.299 141.14 118.145H101.043V113.797H121.623V105.101H96.792V100.657H121.623V91.961C121.623 90.8016 121.913 89.8354 123.748 89.8354H133.507V100.657H160.463V105.005H133.507V113.7H155.053C155.053 113.7 152.831 125.777 146.164 137.662C161.14 142.976 182.299 151.285 189.352 154.087Z"></path>
  <defs>
    <linearGradient id="paint0_linear_531_13609" x1="16" x2="208" y1="16" y2="240" gradientUnits="userSpaceOnUse">
      <stop stop-color="#fff"></stop>
      <stop offset="1" stop-color="#ACCCFF"></stop>
    </linearGradient>
  </defs>
</svg>
