<svg xmlns="http://www.w3.org/2000/svg" xml:space="preserve" width="512" height="512" id="american-express">
  <path fill="#27ADE4" d="M7.9 256C7.9 119 119 7.9 256 7.9S504.1 119 504.1 256 393 504.1 256 504.1 7.9 393 7.9 256z"></path>
  <path fill="#2D78BC" d="m92.6 211.8-7.7-19.1-7.7 19.1m185.9-7.6c-1.6 1-3.4 1-5.6 1h-13.7v-10.6h13.9c2 0 4 .1 5.4.9 1.5.7 2.4 2.2 2.4 4.2-.1 2-.9 3.7-2.4 4.5m98 7.6-7.8-19.1-7.8 19.1h15.6zm-182.7 20.7h-11.6v-37.6l-16.4 37.6h-9.9L124 194.9v37.6h-23l-4.3-10.7H73.1l-4.4 10.7H56.5l20.2-48h16.8l19.2 45.4v-45.4h18.5L146 217l13.6-32.5h18.8v48zm46.2 0h-37.8v-48h37.8v10h-26.5v8.6H224v9.8h-25.8v9.6h26.5v10zm53.3-35c0 7.6-5 11.6-8 12.8 2.5 1 4.6 2.6 5.6 4 1.6 2.4 1.9 4.5 1.9 8.8v9.4H266v-6c0-2.9.3-7-1.8-9.3-1.7-1.7-4.2-2.1-8.2-2.1h-12.1v17.4h-11.3v-48h26c5.8 0 10 .2 13.7 2.3 3.4 2.2 5.6 5.3 5.6 10.7m18.1 35h-11.5v-48H296v48zm133.8 0h-16l-21.4-36v36h-23l-4.4-10.7h-23.5l-4.3 10.7H324c-5.5 0-12.5-1.2-16.4-5.3-4-4.1-6-9.6-6-18.3 0-7.1 1.2-13.6 6.1-18.7 3.6-3.8 9.4-5.6 17.2-5.6h10.9v10.3H325c-4.1 0-6.5.6-8.7 2.8-1.9 2-3.3 5.8-3.3 10.9 0 5.1 1 8.8 3.1 11.3 1.7 1.9 4.9 2.5 7.9 2.5h5.1l15.9-37.7h17l19.1 45.4v-45.4h17.2l19.9 33.4v-33.4h11.6v47.8zm-373.5 9.4h19.3l4.4-10.7h9.8l4.3 10.7h38v-8.1l3.4 8.2h19.7l3.4-8.3v8.3h94.5v-17.5h1.8c1.3 0 1.7.2 1.7 2.3V242h48.9v-4.1c3.9 2.1 10.1 4.1 18.1 4.1h20.5l4.4-10.7h9.8l4.3 10.7h39.6v-10.1l6 10.1h31.7v-67h-31.4v7.9l-4.4-7.9h-32.2v7.9l-4-7.9h-43.5c-7.3 0-13.7 1-18.9 3.9V175h-30v3.9c-3.3-3-7.8-3.9-12.8-3.9H152.8l-7.4 17.3-7.6-17.3h-34.6v7.9l-3.8-7.9H70l-13.7 31.8-15.7 35.1h15.7z"></path>
  <path fill="#FFF" d="m92.6 215.7-7.7-19.1-7.7 19.1m185.9-7.6c-1.6 1-3.4 1-5.6 1h-13.7v-10.6h13.9c2 0 4 .1 5.4.9 1.5.7 2.4 2.2 2.4 4.2-.1 2.1-.9 3.7-2.4 4.5m98 7.6-7.8-19.1-7.8 19.1h15.6zm-182.7 20.7h-11.6v-37.6l-16.4 37.6h-9.9L124 198.8v37.6h-23l-4.3-10.7H73.1l-4.4 10.7H56.5l20.2-48h16.8l19.2 45.4v-45.4h18.5L146 221l13.6-32.5h18.8v47.9zm46.2 0h-37.8v-48h37.8v10h-26.5v8.6H224v9.8h-25.8v9.6h26.5v10zm53.3-35c0 7.6-5 11.6-8 12.8 2.5 1 4.6 2.6 5.6 4 1.6 2.4 1.9 4.5 1.9 8.8v9.4H266v-6c0-2.9.3-7-1.8-9.3-1.7-1.7-4.2-2.1-8.2-2.1h-12.1v17.4h-11.3v-48h26c5.8 0 10 .2 13.7 2.3 3.4 2.2 5.6 5.3 5.6 10.7m18.1 35h-11.5v-48H296v48zm133.8 0h-16l-21.4-36v36h-23l-4.4-10.7h-23.5l-4.3 10.7H324c-5.5 0-12.5-1.2-16.4-5.3-4-4.1-6-9.6-6-18.3 0-7.1 1.2-13.6 6.1-18.7 3.6-3.8 9.4-5.6 17.2-5.6h10.9v10.3H325c-4.1 0-6.5.6-8.7 2.8-1.9 2-3.3 5.8-3.3 10.9 0 5.1 1 8.8 3.1 11.3 1.7 1.9 4.9 2.5 7.9 2.5h5.1l15.9-37.7h17l19.1 45.4v-45.4h17.2l19.9 33.4v-33.4h11.6v47.8zm-373.5 9.4h19.3l4.4-10.7h9.8l4.3 10.7h38v-8.1l3.4 8.2h19.7l3.4-8.3v8.3h94.5v-17.5h1.8c1.3 0 1.7.2 1.7 2.3v15.2h48.9v-4.1c3.9 2.1 10.1 4.1 18.1 4.1h20.5l4.4-10.7h9.8l4.3 10.7h39.6v-10.1l6 10.1h31.7V179h-31.4v7.9l-4.4-7.9h-32.2v7.9l-4-7.9h-43.5c-7.3 0-13.7 1-18.9 3.9V179h-30v3.9c-3.3-3-7.8-3.9-12.8-3.9H152.8l-7.4 17.3-7.6-17.3h-34.6v7.9l-3.8-7.9H70l-13.7 31.8-15.7 35.1h15.7z"></path>
  <path fill="#2D78BC" d="M465.3 287.1v-30.7H437c-6.3 0-10.9 1.5-14.2 3.9v-3.9h-31c-4.9 0-10.8 1.2-13.5 3.9v-3.9H323v3.9c-4.4-3.2-11.8-3.9-15.3-3.9h-36.5v3.9c-3.5-3.4-11.2-3.9-15.9-3.9h-40.8l-9.3 10.2-8.8-10.2h-61v66.9h59.8l9.6-10.4 9.1 10.4h36.9v-15.7h3.6c4.9.1 10.7-.1 15.8-2.3v18h30.4v-17.4h1.5c1.9 0 2.1.1 2.1 2v15.5h92.4c5.9 0 12-1.5 15.4-4.3v4.3h29.3c6.1 0 12.1-.9 16.6-3.1v-.1c6.6-4.3 11-11.8 11-20.3 0-4.7-1.3-9.1-3.6-12.8zM255 297.8h-14.1v16.1h-22L205 298l-14.5 15.9h-44.8V266h45.5l13.9 15.7 14.4-15.7h36.1c9 0 19.1 2.5 19.1 15.8s-9.9 16-19.7 16zm68-2.1c1.6 2.3 1.8 4.5 1.9 8.8v9.5h-11.4v-6c0-2.9.3-7.2-1.8-9.4-1.7-1.7-4.2-2.1-8.3-2.1h-12.1V314H280v-48h26.1c5.7 0 9.9.3 13.6 2.3 3.6 2.2 5.8 5.2 5.8 10.6 0 7.7-5 11.6-8 12.8 2.5.9 4.6 2.6 5.5 4zm46.6-19.8h-26.5v8.7h25.8v9.8h-25.8v9.5h26.5v9.9h-37.8V266h37.8v9.9zm28.8 38h-22v-10.3h21.9c2.1 0 3.7-.3 4.6-1.2.8-.7 1.3-1.8 1.3-3.1 0-1.4-.6-2.5-1.4-3.2-.9-.7-2.1-1.1-4-1.1-10.6-.4-23.8.3-23.8-14.8 0-7 4.3-14.3 16.2-14.3h22.7v10.2h-20.7c-2.1 0-3.4.1-4.5.9-1.2.8-1.7 1.9-1.7 3.5 0 1.8 1.1 3 2.5 3.6 1.2.4 2.5.5 4.4.5l6.1.2c6.1.1 10.4 1.2 12.9 3.9 2.2 2.3 3.4 5.2 3.4 10.1-.2 10.3-6.5 15.1-17.9 15.1zm58.2-4.6c-3 3.1-7.8 4.6-14.1 4.6h-21.8v-10.3h21.8c2.2 0 3.7-.3 4.6-1.2.8-.7 1.3-1.8 1.3-3.1 0-1.4-.5-2.5-1.4-3.2-.8-.7-2-1.1-4-1.1-10.6-.4-23.9.3-23.9-14.8 0-7 4.4-14.3 16.2-14.3h22.1v10.2h-20.2c-2.1 0-3.4.1-4.6.9-1.2.8-1.7 1.9-1.7 3.4 0 1.8 1 3 2.5 3.6 1.2.4 2.5.5 4.4.5l6.1.2c6.2.2 10.3 1.2 12.8 3.9.5.4.7.8 1.1 1.2-.1-.2-.3-.3-.4-.5 2 2.6 3.1 5.9 3.1 9.4.1 4.1-1.4 7.8-3.9 10.6zm-271.3-33.4 12.4 14-12.9 14.1H157v-9.5h24.8v-9.8H157V276h28.3zm26.9 14.1 17.4-18.9v38.4L212.2 290zm50.3-8.2c0 4.2-2.7 6.3-7.1 6.3h-14.6v-12.2h14.8c4.1 0 6.9 1.7 6.9 5.9zm50.5-.7c0 2.1-.9 3.7-2.3 4.6-1.5.9-3.4 1-5.6 1h-13.7v-10.8h13.9c2 0 4 0 5.4.9 1.4.7 2.3 2.2 2.3 4.3z"></path>
  <path fill="#FFF" d="M465.3 291.1v-30.7H437c-6.3 0-10.9 1.5-14.2 3.9v-3.9h-31c-4.9 0-10.8 1.2-13.5 3.9v-3.9H323v3.9c-4.4-3.2-11.8-3.9-15.3-3.9h-36.5v3.9c-3.5-3.4-11.2-3.9-15.9-3.9h-40.8l-9.3 10.2-8.8-10.2h-61v66.9h59.8l9.6-10.4 9.1 10.4h36.9v-15.7h3.6c4.9.1 10.7-.1 15.8-2.3v18h30.4v-17.4h1.5c1.9 0 2.1.1 2.1 2v15.5h92.4c5.9 0 12-1.5 15.4-4.3v4.3h29.3c6.1 0 12.1-.9 16.6-3.1v-.1c6.6-4.3 11-11.8 11-20.3 0-4.8-1.3-9.1-3.6-12.8zM255 301.8h-14.1v16.1h-22l-14-15.9-14.5 15.9h-44.8V270h45.5l13.9 15.7 14.4-15.7h36.1c9 0 19.1 2.5 19.1 15.8.1 13.2-9.8 16-19.6 16zm68-2.2c1.6 2.3 1.8 4.5 1.9 8.8v9.5h-11.4v-6c0-2.9.3-7.2-1.8-9.4-1.7-1.7-4.2-2.1-8.3-2.1h-12.1v17.5H280V270h26.1c5.7 0 9.9.3 13.6 2.3 3.6 2.2 5.8 5.2 5.8 10.6 0 7.7-5 11.6-8 12.8 2.5.8 4.6 2.5 5.5 3.9zm46.6-19.8h-26.5v8.7h25.8v9.8h-25.8v9.5h26.5v9.9h-37.8v-47.9h37.8v10zm28.8 38h-22v-10.3h21.9c2.1 0 3.7-.3 4.6-1.2.8-.7 1.3-1.8 1.3-3.1 0-1.4-.6-2.5-1.4-3.2-.9-.7-2.1-1.1-4-1.1-10.6-.4-23.8.3-23.8-14.8 0-7 4.3-14.3 16.2-14.3h22.7V280h-20.7c-2.1 0-3.4.1-4.5.9-1.2.8-1.7 1.9-1.7 3.5 0 1.8 1.1 3 2.5 3.6 1.2.4 2.5.5 4.4.5l6.1.2c6.1.1 10.4 1.2 12.9 3.9 2.2 2.3 3.4 5.2 3.4 10.1-.2 10.3-6.5 15.1-17.9 15.1zm58.2-4.6c-3 3.1-7.8 4.6-14.1 4.6h-21.8v-10.3h21.8c2.2 0 3.7-.3 4.6-1.2.8-.7 1.3-1.8 1.3-3.1 0-1.4-.5-2.5-1.4-3.2-.8-.7-2-1.1-4-1.1-10.6-.4-23.9.3-23.9-14.8 0-7 4.4-14.3 16.2-14.3h22.1V280h-20.2c-2.1 0-3.4.1-4.6.9-1.2.8-1.7 1.9-1.7 3.4 0 1.8 1 3 2.5 3.6 1.2.4 2.5.5 4.4.5l6.1.2c6.2.2 10.3 1.2 12.8 3.9.5.4.7.8 1.1 1.2-.1-.2-.3-.3-.4-.5 2 2.6 3.1 5.9 3.1 9.4.1 4.1-1.4 7.8-3.9 10.6zm-271.3-33.4 12.4 14-12.9 14.1H157v-9.5h24.8v-9.8H157v-8.7h28.3zm26.9 14.2 17.4-18.9v38.4L212.2 294zm50.3-8.3c0 4.2-2.7 6.3-7.1 6.3h-14.6v-12.2h14.8c4.1 0 6.9 1.7 6.9 5.9zm50.5-.7c0 2.1-.9 3.7-2.3 4.6-1.5.9-3.4 1-5.6 1h-13.7v-10.8h13.9c2 0 4 0 5.4.9 1.4.8 2.3 2.3 2.3 4.3z"></path>
</svg>
