<svg xmlns="http://www.w3.org/2000/svg" width="256" height="256" fill="none" viewBox="0 0 256 256" id="apple">
  <rect width="224" height="224" x="16" y="16" fill="url(#paint0_linear_531_13624)" rx="70"></rect>
  <path fill="#000" d="M182.633 98.8607C177.947 101.728 174.066 105.738 171.352 110.514C168.638 115.29 167.18 120.677 167.116 126.17C167.134 132.353 168.966 138.394 172.384 143.545C175.802 148.697 180.656 152.732 186.344 155.152C184.102 162.389 180.782 169.247 176.498 175.495C170.367 184.32 163.958 193.144 154.204 193.144C144.451 193.144 141.943 187.478 130.703 187.478C119.74 187.478 115.84 193.33 106.925 193.33C98.0105 193.33 91.7859 185.156 84.6335 175.124C75.1846 161.07 69.9916 144.588 69.6777 127.657C69.6777 99.7878 87.7917 85.0197 105.626 85.0197C115.101 85.0197 122.996 91.2435 128.94 91.2435C134.607 91.2435 143.431 84.6483 154.207 84.6483C159.747 84.5049 165.237 85.7262 170.194 88.2047C175.152 90.6831 179.423 94.3425 182.633 98.8607ZM129.685 83.0689C129.031 83.0669 128.378 83.0049 127.734 82.8836C127.553 82.0282 127.459 81.1564 127.456 80.282C127.766 73.0928 130.556 66.2328 135.352 60.868C140.734 54.6852 148.279 50.7966 156.438 50C156.631 50.9474 156.725 51.9125 156.716 52.8795C156.539 60.2125 153.85 67.2624 149.099 72.8508C146.725 75.7809 143.779 78.1977 140.442 79.9542C137.104 81.7108 133.445 82.7705 129.685 83.0689Z"></path>
  <defs>
    <linearGradient id="paint0_linear_531_13624" x1="16" x2="208" y1="16" y2="240" gradientUnits="userSpaceOnUse">
      <stop stop-color="#fff"></stop>
      <stop offset="1" stop-color="#ACCCFF"></stop>
    </linearGradient>
  </defs>
</svg>
