<svg height="34.666668" viewBox="0 0 53.333332 34.666668" width="53.333332" xmlns="http://www.w3.org/2000/svg"><g transform="matrix(.13333333 0 0 -.13333333 0 34.666667)"><path d="m400 0h-400v260h400z" fill="#eee"/><g fill="#333"><path d="m201.711 170.195v-19.543h5.984c8.25 0 10.41 2.864 10.41 9.778 0 6.906-2.16 9.765-10.41 9.765zm6.219 6.356c13.125 0 18.664-5.117 18.664-16.121 0-11.016-5.539-16.133-18.664-16.133h-12.586c-1.156 0-2.121.918-2.121 2.07v28.02c0 1.199.925 2.164 2.121 2.164z"/><path d="m231.25 174.434c0 1.203.969 2.117 2.117 2.117h4.199c1.196 0 2.168-.914 2.168-2.117v-28.02c0-1.148-.972-2.117-2.168-2.117h-4.199c-1.148 0-2.117.918-2.117 2.07z"/><path d="m254.688 170.195v-7.742h9.582c2.578 0 5.847.926 5.847 3.875s-3.269 3.867-5.847 3.867zm0-14.101v-9.68c0-1.148-.926-2.117-2.129-2.117h-4.239c-1.152 0-2.121.969-2.121 2.117v28.02c0 1.203.93 2.117 2.082 2.117h18.567c6.726 0 11.757-3.867 11.757-10.223 0-4.98-3.832-7.285-8.488-8.203 1.895-.691 3.274-2.305 5.117-5.215l4.102-6.496c.742-1.199.422-2.117-.781-2.117h-5.391c-1.152 0-2.726.918-3.457 2.117l-3.828 5.988c-1.152 1.809-2.813 3.692-5.715 3.692z"/><path d="m313.672 174.434v-2.118c0-1.203-.969-2.121-2.117-2.121h-19.582v-6.543h16.867c1.148 0 2.117-.968 2.117-2.117v-2.121c0-1.152-.969-2.117-2.117-2.117h-16.867v-6.645h19.531c1.152 0 2.082-.918 2.082-2.066v-2.172c0-1.148-.93-2.117-2.121-2.117h-25.86c-1.191 0-2.121.969-2.121 2.168v28.015c0 1.157.969 2.071 2.121 2.071h25.95c1.148 0 2.117-.914 2.117-2.117"/><path d="m332.715 176.738h5.019c6.27 0 12.95-3.359 12.95-9.91 0-2.07-1.707-2.48-2.305-2.48h-2.676c-1.289 0-2.344.593-3.223 2.48-1.015 2.164-2.761 3.555-5.527 3.555h-4.015c-6.629 0-8.426-2.442-8.426-9.953 0-7.52 1.797-9.961 8.426-9.961h4.472c2.766 0 4.524 1.386 5.528 3.554.878 1.883 1.945 2.481 3.234 2.481h2.668c.601 0 2.305-.41 2.305-2.481 0-6.543-6.68-9.914-12.954-9.914h-5.476c-11.016 0-16.68 5.121-16.68 16.321 0 11.191 5.664 16.308 16.68 16.308"/><path d="m382.578 176.551c1.199 0 2.117-.914 2.117-2.117v-2.118c0-1.203-.918-2.121-2.117-2.121h-10.051v-23.828c0-1.152-.964-2.07-2.117-2.07h-4.238c-1.152 0-2.117.918-2.117 2.07v23.828h-10.051c-1.191 0-2.117.918-2.117 2.121v2.118c0 1.203.926 2.117 2.117 2.117z"/><path d="m201.711 124.055v-19.543h5.984c8.25 0 10.41 2.859 10.41 9.773 0 6.906-2.16 9.77-10.41 9.77zm6.219 6.355c13.125 0 18.664-5.117 18.664-16.125 0-11.015-5.539-16.1327-18.664-16.1327h-12.586c-1.156 0-2.121.918-2.121 2.0747v28.015c0 1.199.925 2.168 2.121 2.168z"/><path d="m246.516 112.852h10.464c-.144 3.457-1.792 5.3-5.21 5.3-3.313 0-5.071-1.843-5.254-5.3zm.047-4.747c.324-3.679 1.984-5.292 5.761-5.292 1.934 0 3.645.546 4.422 1.511.598.742 1.43 1.203 2.578 1.203h3.371c.782 0 1.375-.593 1.375-1.386 0-4.7855-4.929-6.4457-12.3-6.4457-8.207 0-13.125 4.4217-13.125 12.7657 0 8.289 4.968 12.809 13.125 12.809 8.203 0 13.132-4.383 13.132-12.489v-1.289c0-.781-.593-1.387-1.379-1.387z"/><path d="m286.113 103.645c1.055-.286 2.852-.508 4.746-.508 4.278 0 5.801 2.254 5.801 7.324 0 5.113-1.523 7.371-5.664 7.371-1.152 0-3-.32-4.883-.918zm-7.793 25.386c0 .782.594 1.379 1.387 1.379h5.02c.781 0 1.386-.597 1.386-1.379v-6.914c1.883.598 3.731 1.153 6.492 1.153 7.192 0 12.075-4.332 12.075-12.809 0-8.441-4.836-12.7657-14.289-12.7657-4.375 0-9.668 1.1524-12.071 2.5317z"/><path d="m319.57 98.1523c-.781 0-1.379.5977-1.379 1.3868v21.3279c0 .793.598 1.391 1.379 1.391h5.02c.793 0 1.387-.598 1.387-1.391v-21.3279c0-.7891-.594-1.3868-1.387-1.3868zm-1.472 30.1367c0 1.613.965 2.578 2.578 2.578h2.808c1.614 0 2.579-.965 2.579-2.578v-.777c0-1.614-.965-2.578-2.579-2.578h-2.808c-1.613 0-2.578.964-2.578 2.578z"/><path d="m350.527 97.6953c-6.457 0-9.675 3.2227-9.675 10.1367v21.199c0 .782.593 1.379 1.382 1.379h5.024c.777 0 1.387-.597 1.387-1.379v-7.515h6.257c.789 0 1.387-.598 1.387-1.379v-2.676c0-.781-.598-1.375-1.387-1.375h-6.257v-8.254c0-3.137 1.609-4.797 3.953-4.797 1.203 0 2.082.285 3.093.285h.832c.782 0 1.375-.605 1.375-1.386v-2.3949c0-.6914-.593-1.25-1.375-1.3868-1.386-.2695-3.925-.457-5.996-.457"/><path d="m180 134.238c0 29.953-33.574 54.231-75 54.231-41.4258 0-75-24.278-75-54.231s33.5742-54.238 75-54.238c41.426 0 75 24.285 75 54.238" fill-rule="evenodd"/></g><path d="m110.332 92.7813c-19.4414 3.6718-34.0039 14.6287-34.0039 27.1797 0 12.559 14.5625 23.516 34.0039 27.187zm3.672 89.9847v7.234l-3.672-1.531v-39.961c-33.789 0-62.3359-13.07-62.3359-28.547 0-15.457 28.5469-28.5469 62.3359-28.5469 15.227 0 39.668 23.3989 39.668 45.6879 0 21.25-16.465 40.574-35.996 45.664" fill="#eee"/><path d="m114.004 97.1172-2.813-4.7149-3.195-.9882v97.0549h6.008z" fill="#eee"/></g></svg>