<svg xmlns="http://www.w3.org/2000/svg" width="256" height="256" fill="none" viewBox="0 0 256 256" id="paypal">
  <rect width="224" height="224" x="16" y="16" fill="url(#paint0_linear_531_13643)" rx="70"></rect>
  <path fill="#27346A" d="M167.198 71.3511C161.047 64.3392 149.926 61.333 135.7 61.333H94.4104C93.0028 61.3331 91.6414 61.8352 90.571 62.7492C89.5005 63.6633 88.7913 64.9291 88.5707 66.3193L71.3786 175.356C71.0369 177.506 72.7018 179.453 74.881 179.453H100.372L106.773 138.847L106.575 140.119C107.031 137.249 109.485 135.132 112.392 135.132H124.505C148.301 135.132 166.934 125.466 172.377 97.5065C172.538 96.6796 172.678 95.8747 172.799 95.0884C172.112 94.7246 172.112 94.7246 172.799 95.0884C174.42 84.7542 172.788 77.7198 167.198 71.3511Z"></path>
  <path fill="#27346A" d="M116.527 91.3657C117.224 91.0339 117.986 90.8619 118.758 90.8624H151.128C154.961 90.8624 158.536 91.1118 161.803 91.6376C162.718 91.7834 163.627 91.9574 164.53 92.1595C165.811 92.4421 167.077 92.7879 168.323 93.1957C169.929 93.7321 171.425 94.3569 172.8 95.0884C174.42 84.7502 172.788 77.7198 167.198 71.3511C161.043 64.3392 149.926 61.333 135.7 61.333H94.4069C91.4996 61.333 89.0263 63.4496 88.5707 66.3193L71.3786 175.352C71.0369 177.505 72.7018 179.45 74.8775 179.45H100.372L113.653 95.2244C113.784 94.3965 114.114 93.6128 114.614 92.9406C115.115 92.2684 115.771 91.728 116.527 91.3657Z"></path>
  <path fill="#2790C3" d="M172.375 97.505C166.932 125.461 148.3 135.13 124.504 135.13H112.387C109.48 135.13 107.025 137.247 106.573 140.117L98.609 190.605C98.3115 192.487 99.7667 194.192 101.67 194.192H123.158C124.389 194.192 125.58 193.752 126.515 192.953C127.451 192.153 128.071 191.046 128.263 189.83L128.473 188.735L132.522 163.068L132.783 161.649C132.976 160.434 133.596 159.326 134.531 158.527C135.467 157.727 136.657 157.288 137.888 157.287H141.104C161.919 157.287 178.218 148.831 182.981 124.373C184.969 114.153 183.941 105.619 178.681 99.6255C177.086 97.8101 175.105 96.3108 172.798 95.0869C172.673 95.8772 172.537 96.6781 172.375 97.505Z"></path>
  <path fill="#1F264F" d="M167.103 92.8167C166.254 92.5689 165.398 92.3495 164.534 92.1589C163.63 91.9602 162.721 91.7873 161.807 91.6406C158.537 91.1112 154.964 90.8613 151.127 90.8613H118.761C117.989 90.8596 117.226 91.033 116.53 91.3686C115.774 91.7298 115.117 92.27 114.616 92.9423C114.115 93.6147 113.786 94.399 113.656 95.2273L106.777 138.847L106.578 140.118C107.031 137.248 109.485 135.131 112.393 135.131H124.509C148.305 135.131 166.938 125.466 172.38 97.5059C172.542 96.679 172.678 95.8777 172.803 95.0878C171.425 94.3602 169.933 93.7315 168.326 93.1986C167.921 93.0643 167.513 92.9369 167.104 92.8167"></path>
  <defs>
    <linearGradient id="paint0_linear_531_13643" x1="16" x2="208" y1="16" y2="240" gradientUnits="userSpaceOnUse">
      <stop stop-color="#fff"></stop>
      <stop offset="1" stop-color="#ACCCFF"></stop>
    </linearGradient>
  </defs>
</svg>
