<svg xmlns="http://www.w3.org/2000/svg" xmlns:xlink="http://www.w3.org/1999/xlink" width="470" height="468" viewBox="0 0 470 468" id="samsung-pay">
  <defs>
    <filter id="filter-2" width="111.8%" height="111.9%" x="-5.9%" y="-3.9%" filterUnits="objectBoundingBox">
      <feOffset dy="5" in="SourceAlpha" result="shadowOffsetOuter1"></feOffset>
      <feGaussianBlur in="shadowOffsetOuter1" result="shadowBlurOuter1" stdDeviation="4"></feGaussianBlur>
      <feColorMatrix in="shadowBlurOuter1" result="shadowMatrixOuter1" values="0 0 0 0 0 0 0 0 0 0 0 0 0 0 0 0 0 0 0.078125 0"></feColorMatrix>
      <feOffset dy="4" in="SourceAlpha" result="shadowOffsetOuter2"></feOffset>
      <feGaussianBlur in="shadowOffsetOuter2" result="shadowBlurOuter2" stdDeviation="5.5"></feGaussianBlur>
      <feColorMatrix in="shadowBlurOuter2" result="shadowMatrixOuter2" values="0 0 0 0 0 0 0 0 0 0 0 0 0 0 0 0 0 0 0.210824275 0"></feColorMatrix>
      <feMerge>
        <feMergeNode in="shadowMatrixOuter1"></feMergeNode>
        <feMergeNode in="shadowMatrixOuter2"></feMergeNode>
      </feMerge>
    </filter>
    <path id="path-1" d="M9.635 132.808C24.782 59.782 71.388 19.109 144.085 6.822c53.74-9.081 107.5-9.196 161.15.255 74.852 13.185 119.85 56.23 134.185 130.36 11.075 57.29 11.249 115.191-.174 172.427-15.324 72.52-63.132 117.285-135.561 129.527-53.74 9.08-107.5 9.195-161.15-.255-74.852-13.186-120.05-58.38-134.384-132.509-11.64-57.668-10.52-115.935 1.484-173.82z"></path>
  </defs>
  <g id="S8-/-S8+-icons" fill="none" fill-rule="evenodd" stroke="none" stroke-width="1">
    <g id="icons" transform="translate(-21 -26)">
      <g id="samsung_pay">
        <g transform="translate(32 33)">
          <use xlink:href="#path-1" fill="#000" filter="url(#filter-2)"></use>
          <use xlink:href="#path-1" fill="#3056D3"></use>
        </g>
        <path fill="#FFF" d="M231.998 168.01c28.845 0 52.229 23.384 52.229 52.229 0 2.333-.466 50.115-.466 50.115h-19.414V221.69c0-.978-.051-1.945-.137-2.9v-.038h-.003c-1.484-16.23-15.125-28.945-31.743-28.945-17.607 0-31.881 14.275-31.881 31.883 0 17.607 14.33 29.371 31.938 29.371h6.626l-.043 19.052c-2.42.04-4.575-.034-7.106-.087-28.839-.61-52.23-20.943-52.23-49.787 0-28.845 23.385-52.23 52.23-52.23zM130.7 171.147c25.9 2.753 43.619 22.106 43.619 49.09 0 28.845-20.252 49.179-49.09 49.788-2.532.053-7.826.127-10.246.087l-.044-19.052h8.873c16.395 0 29.825-13.295 29.691-29.691-.138-16.832-11.126-25.205-17.797-28.742-2.722-1.443-5.766-2.167-8.846-2.167H92.313v108.164H73V194.03c0-12.636 10.245-22.88 22.881-22.88h34.82zm241.454 3.14H392l-61.77 127.65h-19.845l61.77-127.65zm-41.263 49.938l-9.918 20.5-34.132-70.44h19.844l24.206 49.94z" transform="translate(32 33)"></path>
      </g>
    </g>
  </g>
</svg>
